<svg id="Layer_1_1_" enable-background="new 0 0 64 64" height="512" viewBox="0 0 64 64" width="512" xmlns="http://www.w3.org/2000/svg"><path d="m12.5 25h.5v-3h-.5c-.827 0-1.5.673-1.5 1.5s.673 1.5 1.5 1.5z"/><path d="m37 22v3h.5c.827 0 1.5-.673 1.5-1.5s-.673-1.5-1.5-1.5z"/><path d="m43.674 30.263c1.433 1.411 3.539 2.078 5.629 1.569 2.104-.512 3.672-2.085 4.29-4.01-1.409.923-3.009 1.64-4.763 2.067-1.248.304-2.497.455-3.718.455-.485 0-.964-.033-1.438-.081z"/><path d="m42.055 27.42c.046.187.101.369.163.547 1.894.478 4.048.487 6.14-.022 2.092-.51 4.002-1.506 5.464-2.801-.027-.187-.061-.374-.107-.561-.667-2.739-3.127-4.582-5.83-4.582-.468 0-.943.056-1.418.171-3.215.782-5.194 4.033-4.412 7.248z"/><path d="m13.775 19.958 8.895-5.661c.344-.219.786-.205 1.118.029 1.535 1.095 3.337 1.674 5.212 1.674h4c4.962 0 9-4.037 9-9 0-1.103-.897-2-2-2-.904 0-3.325.514-4.915 1.288-.303.146-.658.133-.947-.039-2.242-1.325-7.142-2.249-10.138-2.249-4.006 0-7 1.584-7 3 0 .553-.448 1-1 1-2.206 0-4 1.794-4 4 0 5.11.859 7.61 1.775 7.958z"/><path d="m35 29.189v-11.38c-.65.12-1.316.191-2 .191h-4c-2.066 0-4.059-.574-5.806-1.666l-8.194 5.215v7.64c0 1.458.628 2.83 1.728 3.781l4.614 2.528c.598.329 1.275.502 1.956.502h3.404c.681 0 1.357-.173 1.956-.501l4.614-2.528c1.1-.951 1.728-2.324 1.728-3.782zm-15-3.439c-.965 0-1.75-.785-1.75-1.75s.785-1.75 1.75-1.75 1.75.785 1.75 1.75-.785 1.75-1.75 1.75zm5 8c-2.068 0-3.75-1.683-3.75-3.75 0-.414.336-.75.75-.75h6c.414 0 .75.336.75.75 0 2.067-1.682 3.75-3.75 3.75zm5-8c-.965 0-1.75-.785-1.75-1.75s.785-1.75 1.75-1.75 1.75.785 1.75 1.75-.785 1.75-1.75 1.75z"/><path d="m23.298 38c-.788 0-1.57-.16-2.298-.457v4.025c1.107.973 2.513 1.504 4 1.504s2.893-.531 4-1.504v-4.025c-.728.297-1.51.457-2.298.457z"/><path d="m25 32.25c.978 0 1.812-.627 2.122-1.5h-4.243c.309.873 1.143 1.5 2.121 1.5z"/><path d="m54.126 46c-2.275 0-4.126-1.851-4.126-4.126v-3.748c0-1.992 1.418-3.658 3.297-4.042l-.265-1.97c-.916.774-2.014 1.36-3.256 1.662-.632.153-1.266.228-1.89.228-.601 0-1.192-.074-1.765-.205l4.687 13.104 3.711-.903z"/><path d="m52 38.126v3.748c0 1.172.954 2.126 2.126 2.126h.748c1.172 0 2.126-.954 2.126-2.126v-3.748c0-1.172-.954-2.126-2.126-2.126h-.748c-1.172 0-2.126.954-2.126 2.126z"/><path d="m31 41.273v.727c0 .266-.105.52-.293.707-1.524 1.524-3.551 2.364-5.707 2.364s-4.183-.84-5.707-2.364c-.188-.187-.293-.441-.293-.707v-.732c-7.471 1.837-14 4.483-14 5.732l.931 15h6.069v-9h2v9h22v-9h2v9h2.217l3.571-16.454c-1.374-1.041-7.259-2.897-12.788-4.273z"/><path d="m49.229 48.424-3.038-8.495c-.528-.091-1.038-.272-1.501-.549l-3.195-1.917c-.199-.119-.455-.088-.62.076-.138.138-.152.299-.148.382.004.084.032.243.182.367l3.346 2.789c1.109.924 1.745 2.282 1.745 3.726 0 .078-.009.156-.027.231l-1 4.197-2.692 12.769h5.583l2.429-12.928c-.041.005-.083.015-.124.015-.413 0-.796-.258-.94-.663z"/><path d="m54.224 46.641-1.525 1.293 3.381 3.988c.617.729.895 1.688.762 2.634s-.665 1.791-1.459 2.321c-1.492.994-2.383 2.658-2.383 4.451v.672h2v-.672c0-1.122.558-2.164 1.492-2.787 1.269-.847 2.118-2.197 2.331-3.707s-.231-3.042-1.217-4.205z"/><path d="m51 14.889c1.654 0 3-1.346 3-3v-7.199l3.217-.714-.434-1.953-4 .889c-.457.102-.783.508-.783.977v5.184c-.314-.112-.648-.184-1-.184-1.654 0-3 1.346-3 3s1.346 3 3 3z"/><path d="m60 11v5.184c-.314-.112-.648-.184-1-.184-1.654 0-3 1.346-3 3s1.346 3 3 3 3-1.346 3-3v-8z"/></svg>